{"title":"The Expanse S01E01 Dulcinea [1080p WEBDL st4sis]","uid":12875403,"size":1465431882,"categoryP":"video","categoryS":"tv_shows","magnet":"?xt=urn:btih:471a0a0c3ccf855eb7698f6bbfc63a5bae3ef24a&amp;dn=The+Expanse+S01E01+Dulcinea+%5B1080p+WEBDL+st4sis%5D&amp;tr=udp%3A%2F%2Ftracker.leechers-paradise.org%3A6969&amp;tr=udp%3A%2F%2Fzer0day.ch%3A1337&amp;tr=udp%3A%2F%2Fopen.demonii.com%3A1337&amp;tr=udp%3A%2F%2Ftracker.coppersurfer.tk%3A6969&amp;tr=udp%3A%2F%2Fexodus.desync.com%3A6969","seeders":0,"leechers":1,"uploader":"st4sis","files":1,"time":1448942259,"description":"The early pilot of &quot;The Expanse&quot; as shown on syfy's website.\r\n\r\nThis is a direct rip of the version shown on syfy's own site,\r\nthe highest quality I know of, it hasn't been remuxed or reencoded.\r\n\r\nInfo for nerds:\r\nDuration: 00:46:29.12, start: 0.000000, bitrate: 4203 kb/s\r\nStream #0:0: Video: h264 (Main), yuv420p, 1920x1080, Closed Captions, 4196kb/s, 24.42 fps, 23.98 tbr, 1k tbn, 47.95 tbc\r\nStream #0:1: Audio: aac (LC), 44100 Hz, stereo, fltp, 98 kb/s","torrent":{"xt":"urn:btih:471a0a0c3ccf855eb7698f6bbfc63a5bae3ef24a","amp;dn":"The+Expanse+S01E01+Dulcinea+%5B1080p+WEBDL+st4sis%5D","amp;tr":["udp%3A%2F%2Ftracker.leechers-paradise.org%3A6969","udp%3A%2F%2Fzer0day.ch%3A1337","udp%3A%2F%2Fopen.demonii.com%3A1337","udp%3A%2F%2Ftracker.coppersurfer.tk%3A6969","udp%3A%2F%2Fexodus.desync.com%3A6969"],"infoHash":"471a0a0c3ccf855eb7698f6bbfc63a5bae3ef24a","infoHashBuffer":{"type":"Buffer","data":[71,26,10,12,60,207,133,94,183,105,143,107,191,198,58,91,174,62,242,74]},"announce":[],"urlList":[]}}